<mxfile host="app.diagrams.net" modified="2021-11-22T22:32:17.940Z" agent="5.0 (X11; Linux x86_64) AppleWebKit/537.36 (KHTML, like Gecko) Chrome/96.0.4664.45 Safari/537.36" etag="cEQpkXBUDJ99WJ8J1gIA" version="15.8.3" type="github">
  <diagram id="u8-trTyJwI9Wrd4F_1-k" name="Page-1">
    <mxGraphModel dx="651" dy="738" grid="1" gridSize="10" guides="1" tooltips="1" connect="1" arrows="1" fold="1" page="1" pageScale="1" pageWidth="850" pageHeight="1100" math="0" shadow="0">
      <root>
        <mxCell id="0" />
        <mxCell id="1" parent="0" />
        <mxCell id="7brPHFoFwAqDHXqYrKIm-3" style="edgeStyle=orthogonalEdgeStyle;rounded=0;orthogonalLoop=1;jettySize=auto;html=1;exitX=0.5;exitY=1;exitDx=0;exitDy=0;entryX=0.506;entryY=-0.233;entryDx=0;entryDy=0;entryPerimeter=0;fontSize=19;" edge="1" parent="1" source="7brPHFoFwAqDHXqYrKIm-1" target="7brPHFoFwAqDHXqYrKIm-2">
          <mxGeometry relative="1" as="geometry" />
        </mxCell>
        <mxCell id="7brPHFoFwAqDHXqYrKIm-1" value="&lt;font style=&quot;font-size: 19px&quot;&gt;push_swap&lt;/font&gt;" style="rounded=0;whiteSpace=wrap;html=1;sketch=1;" vertex="1" parent="1">
          <mxGeometry x="240" y="80" width="140" height="40" as="geometry" />
        </mxCell>
        <mxCell id="7brPHFoFwAqDHXqYrKIm-2" value="Is the size of the stack a equal to 5?" style="text;html=1;strokeColor=none;fillColor=none;align=center;verticalAlign=middle;whiteSpace=wrap;rounded=0;sketch=1;fontSize=19;" vertex="1" parent="1">
          <mxGeometry x="150" y="150" width="320" height="30" as="geometry" />
        </mxCell>
        <mxCell id="7brPHFoFwAqDHXqYrKIm-8" value="No" style="text;html=1;align=center;verticalAlign=middle;resizable=0;points=[];autosize=1;strokeColor=none;fillColor=none;fontSize=19;" vertex="1" parent="1">
          <mxGeometry x="380" y="210" width="40" height="30" as="geometry" />
        </mxCell>
        <mxCell id="7brPHFoFwAqDHXqYrKIm-7" value="Yes" style="text;html=1;strokeColor=none;fillColor=none;align=center;verticalAlign=middle;whiteSpace=wrap;rounded=0;sketch=1;fontSize=19;" vertex="1" parent="1">
          <mxGeometry x="190" y="210" width="60" height="30" as="geometry" />
        </mxCell>
        <mxCell id="7brPHFoFwAqDHXqYrKIm-9" value="" style="endArrow=none;endFill=1;endSize=12;html=1;rounded=0;fontSize=19;" edge="1" parent="1" target="7brPHFoFwAqDHXqYrKIm-7">
          <mxGeometry width="160" relative="1" as="geometry">
            <mxPoint x="220" y="240" as="sourcePoint" />
            <mxPoint x="180" y="280" as="targetPoint" />
          </mxGeometry>
        </mxCell>
        <mxCell id="7brPHFoFwAqDHXqYrKIm-10" value="" style="endArrow=none;html=1;rounded=0;fontSize=19;entryX=0.5;entryY=1;entryDx=0;entryDy=0;exitX=1;exitY=0;exitDx=0;exitDy=0;" edge="1" parent="1" source="7brPHFoFwAqDHXqYrKIm-7" target="7brPHFoFwAqDHXqYrKIm-2">
          <mxGeometry width="50" height="50" relative="1" as="geometry">
            <mxPoint x="310" y="380" as="sourcePoint" />
            <mxPoint x="360" y="330" as="targetPoint" />
          </mxGeometry>
        </mxCell>
        <mxCell id="7brPHFoFwAqDHXqYrKIm-11" value="" style="endArrow=none;html=1;rounded=0;fontSize=19;exitX=0.5;exitY=1;exitDx=0;exitDy=0;" edge="1" parent="1" source="7brPHFoFwAqDHXqYrKIm-2">
          <mxGeometry width="50" height="50" relative="1" as="geometry">
            <mxPoint x="310" y="380" as="sourcePoint" />
            <mxPoint x="380" y="210" as="targetPoint" />
          </mxGeometry>
        </mxCell>
        <mxCell id="7brPHFoFwAqDHXqYrKIm-12" value="" style="endArrow=classic;html=1;rounded=0;fontSize=19;exitX=0.55;exitY=1.033;exitDx=0;exitDy=0;exitPerimeter=0;" edge="1" parent="1" source="7brPHFoFwAqDHXqYrKIm-8">
          <mxGeometry width="50" height="50" relative="1" as="geometry">
            <mxPoint x="310" y="380" as="sourcePoint" />
            <mxPoint x="410" y="270" as="targetPoint" />
          </mxGeometry>
        </mxCell>
        <mxCell id="7brPHFoFwAqDHXqYrKIm-13" value="" style="endArrow=classic;html=1;rounded=0;fontSize=19;exitX=0.5;exitY=1;exitDx=0;exitDy=0;" edge="1" parent="1" source="7brPHFoFwAqDHXqYrKIm-7">
          <mxGeometry width="50" height="50" relative="1" as="geometry">
            <mxPoint x="310" y="380" as="sourcePoint" />
            <mxPoint x="210" y="270" as="targetPoint" />
          </mxGeometry>
        </mxCell>
        <mxCell id="7brPHFoFwAqDHXqYrKIm-14" value="five_handler" style="rounded=1;whiteSpace=wrap;html=1;sketch=1;fontSize=19;" vertex="1" parent="1">
          <mxGeometry x="120" y="280" width="130" height="30" as="geometry" />
        </mxCell>
        <mxCell id="7brPHFoFwAqDHXqYrKIm-21" value="Is the size of the stack smaller&lt;br&gt;or equal to three?" style="text;html=1;align=center;verticalAlign=middle;resizable=0;points=[];autosize=1;strokeColor=none;fillColor=none;fontSize=19;" vertex="1" parent="1">
          <mxGeometry x="780" y="110" width="270" height="50" as="geometry" />
        </mxCell>
        <mxCell id="7brPHFoFwAqDHXqYrKIm-22" value="" style="endArrow=none;html=1;rounded=0;fontSize=19;entryX=0.452;entryY=1.06;entryDx=0;entryDy=0;entryPerimeter=0;" edge="1" parent="1" target="7brPHFoFwAqDHXqYrKIm-21">
          <mxGeometry width="50" height="50" relative="1" as="geometry">
            <mxPoint x="860" y="200" as="sourcePoint" />
            <mxPoint x="880" y="260" as="targetPoint" />
          </mxGeometry>
        </mxCell>
        <mxCell id="7brPHFoFwAqDHXqYrKIm-23" value="" style="endArrow=none;html=1;rounded=0;fontSize=19;exitX=0.452;exitY=1.04;exitDx=0;exitDy=0;exitPerimeter=0;" edge="1" parent="1" source="7brPHFoFwAqDHXqYrKIm-21">
          <mxGeometry width="50" height="50" relative="1" as="geometry">
            <mxPoint x="830" y="310" as="sourcePoint" />
            <mxPoint x="940" y="200" as="targetPoint" />
          </mxGeometry>
        </mxCell>
        <mxCell id="7brPHFoFwAqDHXqYrKIm-24" value="Yes" style="text;html=1;strokeColor=none;fillColor=none;align=center;verticalAlign=middle;whiteSpace=wrap;rounded=0;sketch=1;fontSize=19;" vertex="1" parent="1">
          <mxGeometry x="820" y="200" width="60" height="30" as="geometry" />
        </mxCell>
        <mxCell id="7brPHFoFwAqDHXqYrKIm-25" value="No" style="text;html=1;align=center;verticalAlign=middle;resizable=0;points=[];autosize=1;strokeColor=none;fillColor=none;fontSize=19;" vertex="1" parent="1">
          <mxGeometry x="930" y="200" width="40" height="30" as="geometry" />
        </mxCell>
        <mxCell id="7brPHFoFwAqDHXqYrKIm-27" value="" style="endArrow=none;html=1;rounded=0;fontSize=19;exitX=0.525;exitY=1.067;exitDx=0;exitDy=0;exitPerimeter=0;" edge="1" parent="1" source="7brPHFoFwAqDHXqYrKIm-25">
          <mxGeometry width="50" height="50" relative="1" as="geometry">
            <mxPoint x="830" y="310" as="sourcePoint" />
            <mxPoint x="951" y="260" as="targetPoint" />
          </mxGeometry>
        </mxCell>
        <mxCell id="7brPHFoFwAqDHXqYrKIm-28" value="It is 5?" style="text;html=1;align=center;verticalAlign=middle;resizable=0;points=[];autosize=1;strokeColor=none;fillColor=none;fontSize=19;" vertex="1" parent="1">
          <mxGeometry x="915" y="260" width="70" height="30" as="geometry" />
        </mxCell>
        <mxCell id="7brPHFoFwAqDHXqYrKIm-29" value="" style="endArrow=none;html=1;rounded=0;fontSize=19;" edge="1" parent="1">
          <mxGeometry width="50" height="50" relative="1" as="geometry">
            <mxPoint x="920" y="320" as="sourcePoint" />
            <mxPoint x="940" y="290" as="targetPoint" />
          </mxGeometry>
        </mxCell>
        <mxCell id="7brPHFoFwAqDHXqYrKIm-30" value="" style="endArrow=none;html=1;rounded=0;fontSize=19;exitX=0.614;exitY=1.067;exitDx=0;exitDy=0;exitPerimeter=0;" edge="1" parent="1" source="7brPHFoFwAqDHXqYrKIm-28">
          <mxGeometry width="50" height="50" relative="1" as="geometry">
            <mxPoint x="830" y="310" as="sourcePoint" />
            <mxPoint x="970" y="320" as="targetPoint" />
          </mxGeometry>
        </mxCell>
        <mxCell id="7brPHFoFwAqDHXqYrKIm-31" value="yes" style="text;html=1;align=center;verticalAlign=middle;resizable=0;points=[];autosize=1;strokeColor=none;fillColor=none;fontSize=19;" vertex="1" parent="1">
          <mxGeometry x="890" y="320" width="50" height="30" as="geometry" />
        </mxCell>
        <mxCell id="7brPHFoFwAqDHXqYrKIm-32" value="No" style="text;html=1;strokeColor=none;fillColor=none;align=center;verticalAlign=middle;whiteSpace=wrap;rounded=0;sketch=1;fontSize=19;" vertex="1" parent="1">
          <mxGeometry x="950" y="320" width="60" height="30" as="geometry" />
        </mxCell>
        <mxCell id="7brPHFoFwAqDHXqYrKIm-35" value="" style="endArrow=classic;html=1;rounded=0;fontSize=19;exitX=0.25;exitY=1;exitDx=0;exitDy=0;entryX=0.5;entryY=0;entryDx=0;entryDy=0;" edge="1" parent="1" source="7brPHFoFwAqDHXqYrKIm-24">
          <mxGeometry width="50" height="50" relative="1" as="geometry">
            <mxPoint x="830" y="310" as="sourcePoint" />
            <mxPoint x="820" y="250" as="targetPoint" />
          </mxGeometry>
        </mxCell>
        <mxCell id="7brPHFoFwAqDHXqYrKIm-37" value="" style="endArrow=classic;html=1;rounded=0;fontSize=19;exitX=0.28;exitY=1.1;exitDx=0;exitDy=0;exitPerimeter=0;entryX=0.544;entryY=-0.067;entryDx=0;entryDy=0;entryPerimeter=0;" edge="1" parent="1" source="7brPHFoFwAqDHXqYrKIm-31">
          <mxGeometry width="50" height="50" relative="1" as="geometry">
            <mxPoint x="830" y="310" as="sourcePoint" />
            <mxPoint x="888.96" y="377.99" as="targetPoint" />
          </mxGeometry>
        </mxCell>
        <mxCell id="7brPHFoFwAqDHXqYrKIm-41" value="Exceptions" style="swimlane;sketch=1;fontSize=19;" vertex="1" parent="1">
          <mxGeometry x="740" y="70" width="330" height="370" as="geometry" />
        </mxCell>
        <mxCell id="7brPHFoFwAqDHXqYrKIm-42" value="sort_five" style="text;html=1;align=center;verticalAlign=middle;resizable=0;points=[];autosize=1;strokeColor=none;fillColor=none;fontSize=19;" vertex="1" parent="7brPHFoFwAqDHXqYrKIm-41">
          <mxGeometry x="90" y="305" width="90" height="30" as="geometry" />
        </mxCell>
        <mxCell id="7brPHFoFwAqDHXqYrKIm-43" value="under_three" style="text;html=1;align=center;verticalAlign=middle;resizable=0;points=[];autosize=1;strokeColor=none;fillColor=none;fontSize=19;" vertex="1" parent="7brPHFoFwAqDHXqYrKIm-41">
          <mxGeometry x="10" y="180" width="120" height="30" as="geometry" />
        </mxCell>
        <mxCell id="7brPHFoFwAqDHXqYrKIm-65" style="edgeStyle=orthogonalEdgeStyle;rounded=0;orthogonalLoop=1;jettySize=auto;html=1;exitX=1.031;exitY=0.5;exitDx=0;exitDy=0;entryX=0.5;entryY=0;entryDx=0;entryDy=0;fontSize=19;exitPerimeter=0;" edge="1" parent="1" source="7brPHFoFwAqDHXqYrKIm-53" target="7brPHFoFwAqDHXqYrKIm-61">
          <mxGeometry relative="1" as="geometry" />
        </mxCell>
        <mxCell id="7brPHFoFwAqDHXqYrKIm-55" value="a_to_b" style="swimlane;sketch=1;fontSize=19;" vertex="1" parent="1">
          <mxGeometry x="320" y="290" width="400" height="320" as="geometry" />
        </mxCell>
        <mxCell id="7brPHFoFwAqDHXqYrKIm-18" value="exceptions?" style="rounded=1;whiteSpace=wrap;html=1;sketch=1;fontSize=19;" vertex="1" parent="7brPHFoFwAqDHXqYrKIm-55">
          <mxGeometry x="120" y="30" width="120" height="30" as="geometry" />
        </mxCell>
        <mxCell id="7brPHFoFwAqDHXqYrKIm-48" value="No" style="text;html=1;align=center;verticalAlign=middle;resizable=0;points=[];autosize=1;strokeColor=none;fillColor=none;fontSize=19;" vertex="1" parent="7brPHFoFwAqDHXqYrKIm-55">
          <mxGeometry x="205" y="90" width="40" height="30" as="geometry" />
        </mxCell>
        <mxCell id="7brPHFoFwAqDHXqYrKIm-47" value="" style="endArrow=none;html=1;rounded=0;fontSize=19;exitX=0.5;exitY=1;exitDx=0;exitDy=0;" edge="1" parent="7brPHFoFwAqDHXqYrKIm-55" source="7brPHFoFwAqDHXqYrKIm-18">
          <mxGeometry width="50" height="50" relative="1" as="geometry">
            <mxPoint x="150" y="80" as="sourcePoint" />
            <mxPoint x="210" y="90" as="targetPoint" />
          </mxGeometry>
        </mxCell>
        <mxCell id="7brPHFoFwAqDHXqYrKIm-53" value="select two pivots.&lt;br&gt;" style="text;html=1;align=center;verticalAlign=middle;resizable=0;points=[];autosize=1;strokeColor=none;fillColor=none;fontSize=19;" vertex="1" parent="7brPHFoFwAqDHXqYrKIm-55">
          <mxGeometry x="150" y="150" width="160" height="30" as="geometry" />
        </mxCell>
        <mxCell id="7brPHFoFwAqDHXqYrKIm-52" value="" style="endArrow=classic;html=1;rounded=0;fontSize=19;exitX=0.55;exitY=1.033;exitDx=0;exitDy=0;exitPerimeter=0;" edge="1" parent="7brPHFoFwAqDHXqYrKIm-55" source="7brPHFoFwAqDHXqYrKIm-48">
          <mxGeometry width="50" height="50" relative="1" as="geometry">
            <mxPoint x="150" y="80" as="sourcePoint" />
            <mxPoint x="227" y="150" as="targetPoint" />
          </mxGeometry>
        </mxCell>
        <mxCell id="7brPHFoFwAqDHXqYrKIm-54" value="call (pra) for the size if stack a." style="text;html=1;align=center;verticalAlign=middle;resizable=0;points=[];autosize=1;strokeColor=none;fillColor=none;fontSize=19;" vertex="1" parent="7brPHFoFwAqDHXqYrKIm-55">
          <mxGeometry x="130" y="180" width="270" height="30" as="geometry" />
        </mxCell>
        <mxCell id="7brPHFoFwAqDHXqYrKIm-46" value="yes" style="text;html=1;align=center;verticalAlign=middle;resizable=0;points=[];autosize=1;strokeColor=none;fillColor=none;fontSize=19;" vertex="1" parent="7brPHFoFwAqDHXqYrKIm-55">
          <mxGeometry x="110" y="80" width="50" height="30" as="geometry" />
        </mxCell>
        <mxCell id="7brPHFoFwAqDHXqYrKIm-49" value="stop" style="text;html=1;align=center;verticalAlign=middle;resizable=0;points=[];autosize=1;strokeColor=none;fillColor=none;fontSize=19;" vertex="1" parent="7brPHFoFwAqDHXqYrKIm-55">
          <mxGeometry x="60" y="140" width="50" height="30" as="geometry" />
        </mxCell>
        <mxCell id="7brPHFoFwAqDHXqYrKIm-51" value="" style="endArrow=classic;html=1;rounded=0;fontSize=19;entryX=0.6;entryY=0;entryDx=0;entryDy=0;entryPerimeter=0;" edge="1" parent="7brPHFoFwAqDHXqYrKIm-55" target="7brPHFoFwAqDHXqYrKIm-49">
          <mxGeometry width="50" height="50" relative="1" as="geometry">
            <mxPoint x="120" y="110" as="sourcePoint" />
            <mxPoint x="200" y="20" as="targetPoint" />
          </mxGeometry>
        </mxCell>
        <mxCell id="7brPHFoFwAqDHXqYrKIm-45" value="" style="endArrow=none;html=1;rounded=0;fontSize=19;exitX=0.5;exitY=1;exitDx=0;exitDy=0;entryX=0.94;entryY=-0.067;entryDx=0;entryDy=0;entryPerimeter=0;" edge="1" parent="7brPHFoFwAqDHXqYrKIm-55" source="7brPHFoFwAqDHXqYrKIm-18" target="7brPHFoFwAqDHXqYrKIm-46">
          <mxGeometry width="50" height="50" relative="1" as="geometry">
            <mxPoint x="150" y="70" as="sourcePoint" />
            <mxPoint x="150" y="90" as="targetPoint" />
          </mxGeometry>
        </mxCell>
        <mxCell id="7brPHFoFwAqDHXqYrKIm-60" style="edgeStyle=orthogonalEdgeStyle;rounded=0;orthogonalLoop=1;jettySize=auto;html=1;exitX=1;exitY=0.5;exitDx=0;exitDy=0;fontSize=19;entryX=0.524;entryY=-0.022;entryDx=0;entryDy=0;entryPerimeter=0;" edge="1" parent="1" source="7brPHFoFwAqDHXqYrKIm-18" target="7brPHFoFwAqDHXqYrKIm-41">
          <mxGeometry relative="1" as="geometry">
            <mxPoint x="660" y="40" as="targetPoint" />
            <Array as="points">
              <mxPoint x="650" y="335" />
              <mxPoint x="650" y="50" />
              <mxPoint x="913" y="50" />
            </Array>
          </mxGeometry>
        </mxCell>
        <mxCell id="7brPHFoFwAqDHXqYrKIm-61" value="select_pivots" style="swimlane;sketch=1;fontSize=19;" vertex="1" parent="1">
          <mxGeometry x="740" y="480" width="370" height="100" as="geometry" />
        </mxCell>
        <mxCell id="7brPHFoFwAqDHXqYrKIm-63" value="small_pivot = big_pivot + minNumber / 2" style="text;html=1;align=center;verticalAlign=middle;resizable=0;points=[];autosize=1;strokeColor=none;fillColor=none;fontSize=19;" vertex="1" parent="7brPHFoFwAqDHXqYrKIm-61">
          <mxGeometry x="5" y="65" width="350" height="30" as="geometry" />
        </mxCell>
        <mxCell id="7brPHFoFwAqDHXqYrKIm-62" value="big_pivot = maxNumber + minNumber / 2" style="text;html=1;align=center;verticalAlign=middle;resizable=0;points=[];autosize=1;strokeColor=none;fillColor=none;fontSize=19;" vertex="1" parent="7brPHFoFwAqDHXqYrKIm-61">
          <mxGeometry x="5" y="35" width="360" height="30" as="geometry" />
        </mxCell>
      </root>
    </mxGraphModel>
  </diagram>
</mxfile>
